<svg width="35" height="35" viewBox="0 0 35 35" fill="none" xmlns="http://www.w3.org/2000/svg">
<g clip-path="url(#clip0_1_426)">
<path d="M26.5488 0.94043H7.81167C3.59694 0.94043 0.180222 4.35715 0.180222 8.57188V27.309C0.180222 31.5237 3.59694 34.9404 7.81167 34.9404H26.5488C30.7635 34.9404 34.1802 31.5237 34.1802 27.309V8.57188C34.1802 4.35715 30.7635 0.94043 26.5488 0.94043Z" fill="#0B86CA"/>
<path d="M9.60177 15.0727H13.1348V26.4728H9.60177V15.0727ZM11.4036 9.40802C11.8084 9.40803 12.2041 9.52792 12.5409 9.75257C12.8776 9.97722 13.1402 10.2966 13.2957 10.6703C13.4511 11.0441 13.4924 11.4555 13.4143 11.8527C13.3361 12.2498 13.1421 12.615 12.8567 12.902C12.5713 13.1891 12.2073 13.3852 11.8106 13.4656C11.4139 13.546 11.0022 13.5071 10.6276 13.3538C10.2529 13.2005 9.93209 12.9397 9.70551 12.6042C9.47893 12.2688 9.35678 11.8738 9.35445 11.469C9.3529 11.1989 9.40476 10.9312 9.50704 10.6812C9.60933 10.4312 9.76002 10.2039 9.95046 10.0124C10.1409 9.82084 10.3673 9.66884 10.6167 9.56512C10.8661 9.46141 11.1335 9.40802 11.4036 9.40802ZM15.396 15.0727H18.7996V16.6273C19.1402 16.0458 19.6324 15.5678 20.2236 15.2443C20.8147 14.9207 21.4826 14.7637 22.156 14.7901C25.6891 14.7901 26.4074 17.1455 26.4074 20.2192V26.4728H22.8744V20.9612C22.8744 19.6422 22.8744 17.9345 21.0372 17.9345C19.2 17.9345 18.9173 19.3713 18.9173 20.8552V26.4963H15.3842L15.396 15.0727Z" fill="#F5F5F5"/>
</g>
<defs>
<clipPath id="clip0_1_426">
<rect x="0.180222" y="0.94043" width="34" height="34" rx="17" fill="white"/>
</clipPath>
</defs>
</svg>
