<svg width="36" height="35" viewBox="0 0 36 35" fill="none" xmlns="http://www.w3.org/2000/svg">
<circle cx="18" cy="17.4702" r="17.0702" fill="#CA3660"/>
<path fill-rule="evenodd" clip-rule="evenodd" d="M17.5993 17.5595C19.3389 17.5595 20.7492 16.1492 20.7492 14.4096C20.7492 12.67 19.3389 11.2598 17.5993 11.2598C15.8597 11.2598 14.4495 12.67 14.4495 14.4096C14.4495 16.1492 15.8597 17.5595 17.5993 17.5595ZM28.099 14.9344C28.099 16.0942 27.1588 17.0343 25.9991 17.0343C24.8393 17.0343 23.8992 16.0942 23.8992 14.9344C23.8992 13.7747 24.8393 12.8345 25.9991 12.8345C27.1588 12.8345 28.099 13.7747 28.099 14.9344ZM10.2497 22.0217C10.2497 20.5833 10.9426 19.3024 12.0031 18.5044C11.5726 18.2419 11.0581 18.0844 10.5121 18.0844H7.88726C6.29133 18.0844 4.99989 19.3759 4.99989 20.9718V21.4968C4.99989 21.9272 5.35688 22.2842 5.78736 22.2842H10.2497V22.0217ZM10.0999 17.0343C11.2597 17.0343 12.1998 16.0942 12.1998 14.9344C12.1998 13.7747 11.2597 12.8345 10.0999 12.8345C8.94017 12.8345 8.00002 13.7747 8.00002 14.9344C8.00002 16.0942 8.94017 17.0343 10.0999 17.0343ZM30.1987 21.4968V20.9718C30.1987 19.3759 28.9073 18.0844 27.3114 18.0844H24.6865C24.1405 18.0844 23.6261 18.2419 23.1956 18.5044C24.256 19.3024 24.949 20.5833 24.949 22.0217V22.2842H29.4113C29.8418 22.2842 30.1987 21.9272 30.1987 21.4968ZM14.7119 19.1344H20.4866C22.0794 19.1344 23.374 20.429 23.374 22.0218V23.5967C23.374 24.0314 23.0212 24.3842 22.5865 24.3842H12.612C12.1773 24.3842 11.8245 24.0314 11.8245 23.5967V22.0218C11.8245 20.429 13.1191 19.1344 14.7119 19.1344Z" fill="#F5F5F5"/>
</svg>
